<svg width="106" height="28" viewBox="0 0 106 28" fill="none" xmlns="http://www.w3.org/2000/svg">
<path fill-rule="evenodd" clip-rule="evenodd" d="M23.0509 23.3673C23.4168 23.7676 23.3994 24.3898 22.9834 24.7377C21.1181 26.2984 18.8736 27.3499 16.4686 27.7807C13.7431 28.269 10.9339 27.938 8.39646 26.8298C5.85899 25.7215 3.70713 23.8855 2.21305 21.5544C0.718971 19.2231 -0.0503161 16.5011 0.0025403 13.7327C0.0554578 10.9643 0.928077 8.27372 2.51005 6.00126C4.09208 3.72868 6.31242 1.97636 8.89036 0.965737C11.4683 -0.0447613 14.288 -0.268272 16.993 0.323647C19.3921 0.848671 21.6053 1.9943 23.4149 3.63859C23.8049 3.99296 23.8106 4.59428 23.4555 4.98368L14.86 14.4104L23.0509 23.3673ZM8.68601 5.68607C7.94962 5.68607 7.3527 6.283 7.3527 7.01945V8.3527H6.01932C5.28294 8.3527 4.68601 8.94975 4.68601 9.68607C4.68601 10.4224 5.28294 11.0194 6.01932 11.0194H7.3527V12.3527C7.3527 13.0891 7.94962 13.6861 8.68601 13.6861C9.4224 13.6861 10.0193 13.0891 10.0193 12.3527V11.0194H11.3527C12.0891 11.0194 12.686 10.4224 12.686 9.68607C12.686 8.94975 12.0891 8.3527 11.3527 8.3527H10.0193V7.01945C10.0193 6.283 9.4224 5.68607 8.68601 5.68607ZM36.0086 18.3281H39.8494L40.5965 21H43.198L39.0848 8.20314H36.8436L32.6512 21H35.2527L36.0086 18.3281ZM39.2693 16.2276H36.615L37.9598 11.5166L39.2693 16.2276ZM48.1981 13.0108L46.9852 8.20314H43.9178V21H46.1854V17.2119L46.0799 11.4639L47.5829 16.7813H48.8046L50.4833 11.2266L50.3778 17.2119V21H52.6454V8.20314H49.578L48.1981 13.0108ZM56.9687 15.3926H62.2245V13.4414H56.9687V10.2158H63.0859V8.20314H54.4902V21H63.1122V19.0049H56.9687V15.3926ZM81.1456 21H83.5889V8.20314H81.1456V13.4502H77.5245V8.20314H75.0723V21H77.5245V15.4541H81.1456V21ZM94.0734 16.6846L94.0646 8.20314H91.6124L91.6036 16.6846C91.5978 17.1006 91.5538 17.4668 91.4718 17.7832C91.3898 18.0996 91.2667 18.3633 91.1027 18.5742C90.9503 18.7793 90.757 18.9346 90.5226 19.0401C90.2941 19.1397 90.0304 19.1895 89.7316 19.1895C89.4562 19.1895 89.213 19.1426 89.0021 19.0488C88.7911 18.9492 88.6124 18.8028 88.4659 18.6094C88.3077 18.3985 88.1876 18.1319 88.1056 17.8096C88.0294 17.4873 87.9884 17.1123 87.9825 16.6846L87.9737 8.20314H85.504L85.4952 16.6846C85.4952 17.3994 85.5948 18.0381 85.7941 18.6006C85.9991 19.1572 86.2862 19.626 86.6554 20.0069C87.0245 20.3877 87.4669 20.6778 87.9825 20.877C88.504 21.0762 89.087 21.1758 89.7316 21.1758C90.4171 21.1758 91.0265 21.0762 91.5597 20.877C92.0987 20.6778 92.5558 20.3848 92.9308 19.9981C93.2999 19.6172 93.5812 19.1485 93.7745 18.5918C93.9737 18.0352 94.0734 17.3994 94.0734 16.6846ZM95.9181 8.20314V21H100.585C101.288 21 101.921 20.9209 102.484 20.7627C103.046 20.6045 103.524 20.3672 103.916 20.0508C104.309 19.7344 104.611 19.3418 104.821 18.8731C105.032 18.4043 105.138 17.8623 105.138 17.2471C105.138 16.9248 105.094 16.6143 105.006 16.3154C104.924 16.0108 104.795 15.7295 104.619 15.4717C104.449 15.2315 104.238 15.0205 103.987 14.8389C103.74 14.6572 103.406 14.5078 102.985 14.3906V14.3819C103.201 14.2998 103.398 14.2002 103.573 14.083C103.755 13.9658 103.916 13.8369 104.057 13.6963C104.315 13.4385 104.508 13.1397 104.637 12.7998C104.772 12.4541 104.842 12.0879 104.848 11.7012C104.848 11.1035 104.737 10.585 104.514 10.1455C104.297 9.70607 103.987 9.34279 103.582 9.05568C103.178 8.76857 102.689 8.55471 102.114 8.41408C101.546 8.27346 100.913 8.20314 100.216 8.20314H95.9181ZM98.3967 19.0049V15.3574H100.699C101.045 15.3633 101.344 15.4102 101.596 15.4981C101.848 15.586 102.053 15.7119 102.211 15.876C102.369 16.0342 102.484 16.2276 102.554 16.4561C102.63 16.6846 102.668 16.9424 102.668 17.2295C102.668 17.5049 102.618 17.7539 102.519 17.9766C102.425 18.1992 102.284 18.3897 102.097 18.5479C101.927 18.6885 101.713 18.7998 101.455 18.8819C101.203 18.9639 100.916 19.0049 100.594 19.0049H98.3967ZM100.234 13.5733H98.3967V10.2158H100.225C100.623 10.2217 100.969 10.2656 101.262 10.3477C101.561 10.4297 101.798 10.5615 101.974 10.7432C102.109 10.8721 102.208 11.0332 102.273 11.2266C102.343 11.4199 102.378 11.6455 102.378 11.9033C102.378 12.1494 102.337 12.3692 102.255 12.5625C102.179 12.7559 102.068 12.9199 101.921 13.0547C101.745 13.2246 101.514 13.3535 101.227 13.4414C100.94 13.5235 100.609 13.5674 100.234 13.5733ZM31.4914 18.2757C31.3886 18.5035 31.23 18.7492 31.0155 19.0129C30.8011 19.2766 30.5332 19.5334 30.212 19.7832C29.8865 20.0403 29.5103 20.2776 29.0833 20.4951C28.6563 20.7127 28.1825 20.8912 27.6618 21.0307C27.209 21.152 26.7673 21.2128 26.3367 21.2129C25.9132 21.2172 25.5079 21.165 25.1209 21.0564C24.7381 20.9406 24.3714 20.7719 24.0209 20.5504C23.676 20.3274 23.3594 20.0513 23.071 19.7222C22.7437 19.361 22.4529 18.9324 22.1987 18.4363C21.9501 17.9388 21.7432 17.3816 21.5779 16.7647L21.1275 15.0837C20.9698 14.4951 20.8772 13.9345 20.8498 13.402C20.8208 12.8638 20.85 12.3616 20.9374 11.8954C21.0256 11.4774 21.152 11.0887 21.3165 10.7292C21.4866 10.3682 21.6901 10.0407 21.9267 9.74676C22.2068 9.41089 22.5339 9.1261 22.908 8.8924C23.2821 8.65869 23.6956 8.48118 24.1484 8.35986C24.8445 8.17333 25.4736 8.09878 26.0357 8.13623C26.6034 8.17216 27.1095 8.30649 27.554 8.53922C28 8.7776 28.3858 9.10796 28.7113 9.5303C29.0424 9.95112 29.3187 10.4503 29.5402 11.0279L27.2141 11.6512C27.0941 11.3619 26.9605 11.1125 26.8135 10.9032C26.6721 10.6924 26.5094 10.5267 26.3254 10.4062C26.1199 10.2732 25.8841 10.1968 25.618 10.1772C25.356 10.1503 25.0581 10.1816 24.7242 10.2711C24.5431 10.3196 24.3752 10.3949 24.2206 10.497C24.0659 10.5991 23.9295 10.7236 23.8111 10.8706C23.6581 11.0693 23.5342 11.3087 23.4394 11.5889C23.3503 11.8676 23.2981 12.1818 23.2826 12.5317C23.2701 12.802 23.2822 13.096 23.3188 13.4138C23.361 13.73 23.43 14.0664 23.5255 14.423L23.9805 16.1209C24.1003 16.568 24.2377 16.9679 24.3929 17.3206C24.5537 17.6718 24.7258 17.9745 24.9092 18.2287C25.0211 18.3746 25.1385 18.507 25.2613 18.6257C25.3882 18.7373 25.5199 18.8324 25.6562 18.9112C25.8859 19.0437 26.1324 19.1263 26.3959 19.1588C26.6635 19.1842 26.9509 19.1587 27.2581 19.0825C27.4448 19.0324 27.625 18.969 27.7985 18.8922C27.972 18.8153 28.1312 18.7302 28.276 18.6368C28.4209 18.5434 28.5444 18.4497 28.6465 18.3556C28.7529 18.2543 28.8273 18.1585 28.8698 18.0683L28.2778 15.8247L26.2318 16.373L25.7541 14.5902L30.1772 13.405L31.4914 18.2757ZM67.2519 13.4424C66.9531 13.7529 66.8037 14.1338 66.8037 14.585C66.8037 15.0362 66.956 15.4141 67.2607 15.7188C67.5654 16.0235 67.9785 16.1758 68.5 16.1758C69.0156 16.1758 69.4258 16.0264 69.7305 15.7276C70.041 15.4229 70.1963 15.042 70.1963 14.585C70.1963 14.1279 70.0439 13.7442 69.7392 13.4336C69.4404 13.1231 69.0273 12.9678 68.5 12.9678C67.9668 12.9678 67.5508 13.126 67.2519 13.4424Z" fill="white"/>
</svg>
