<svg width="85" height="14" viewBox="0 0 85 14" fill="none" xmlns="http://www.w3.org/2000/svg">
<path fill-rule="evenodd" clip-rule="evenodd" d="M10.6524 10.2756C10.5496 10.5033 10.391 10.749 10.1766 11.0127C9.96214 11.2765 9.69428 11.5332 9.373 11.7831C9.04758 12.0402 8.67138 12.2774 8.24438 12.495C7.81738 12.7125 7.34354 12.891 6.82284 13.0306C6.37006 13.1519 5.92835 13.2126 5.49769 13.2128C5.07422 13.217 4.66898 13.1649 4.28198 13.0563C3.89912 12.9405 3.53242 12.7718 3.1819 12.5503C2.83703 12.3273 2.52041 12.0512 2.23203 11.722C1.90474 11.3608 1.61398 10.9322 1.35975 10.4362C1.11118 9.93866 0.904243 9.38143 0.738943 8.76452L0.288538 7.08359C0.130819 6.49498 0.0382433 5.9344 0.0108079 5.40188C-0.0181447 4.86369 0.0110721 4.36147 0.0984563 3.89524C0.186654 3.47731 0.313006 3.08859 0.477516 2.72907C0.647685 2.36804 0.851109 2.04056 1.08779 1.74663C1.36782 1.41076 1.6949 1.12597 2.06904 0.892263C2.44318 0.65856 2.85663 0.481047 3.30941 0.359726C4.00556 0.173194 4.63465 0.0986524 5.1967 0.136101C5.76441 0.172032 6.27052 0.30636 6.71504 0.539083C7.16108 0.777466 7.54683 1.10783 7.87231 1.53017C8.20345 1.95099 8.47976 2.45019 8.70125 3.02778L6.37511 3.65107C6.25512 3.36172 6.12158 3.1124 5.97451 2.9031C5.8331 2.69228 5.67041 2.52659 5.48646 2.40603C5.28097 2.27304 5.04517 2.1967 4.77906 2.17702C4.51709 2.15016 4.21914 2.18146 3.88521 2.27094C3.7041 2.31947 3.53623 2.39478 3.38161 2.49687C3.22698 2.59896 3.0905 2.72349 2.97216 2.87046C2.81916 3.06917 2.69527 3.30861 2.60049 3.58878C2.51137 3.86744 2.45909 4.18171 2.44366 4.53162C2.43115 4.80188 2.4432 5.09588 2.47982 5.41364C2.52209 5.72988 2.591 6.06628 2.68654 6.42285L3.1415 8.12076C3.2613 8.56788 3.39879 8.9678 3.55396 9.32051C3.71479 9.67171 3.88689 9.9744 4.07024 10.2286C4.18214 10.3745 4.29949 10.5068 4.4223 10.6256C4.54925 10.7372 4.68091 10.8323 4.81725 10.911C5.04689 11.0436 5.29346 11.1262 5.55695 11.1587C5.82458 11.184 6.11197 11.1586 6.41911 11.0824C6.60588 11.0323 6.78603 10.9689 6.95956 10.892C7.13308 10.8152 7.29226 10.7301 7.43708 10.6367C7.58191 10.5433 7.70541 10.4495 7.80758 10.3554C7.91389 10.2542 7.98832 10.1584 8.03087 10.0681L7.43881 7.82461L5.39282 8.37284L4.91512 6.59002L9.33819 5.40487L10.6524 10.2756ZM19.0105 10.328H15.1696L14.4138 12.9999H11.8122L16.0046 0.203013H18.2458L22.3591 12.9999H19.7575L19.0105 10.328ZM15.7761 8.22743H18.4304L17.1208 3.51649L15.7761 8.22743ZM26.1463 0.203013L27.3591 5.01063L28.739 0.203013H31.8064V12.9999H29.5388V9.2118L29.6443 3.22645L27.9656 8.78114H26.7439L25.241 3.46375L25.3465 9.2118V12.9999H23.0789V0.203013H26.1463ZM41.3856 7.39247H36.1297V11.0048H42.2733V12.9999H33.6512V0.203013H42.2469V2.21571H36.1297V5.44129H41.3856V7.39247ZM62.75 12.9999H60.3066V7.45399H56.6855V12.9999H54.2334V0.203013H56.6855V5.45008H60.3066V0.203013H62.75V12.9999ZM73.2256 0.203013L73.2344 8.68446C73.2344 9.3993 73.1348 10.035 72.9356 10.5917C72.7422 11.1483 72.461 11.6171 72.0918 11.9979C71.7168 12.3847 71.2598 12.6776 70.7207 12.8768C70.1875 13.0761 69.5782 13.1757 68.8926 13.1757C68.2481 13.1757 67.6651 13.0761 67.1436 12.8768C66.628 12.6776 66.1856 12.3876 65.8164 12.0067C65.4473 11.6259 65.1602 11.1571 64.9551 10.6005C64.7559 10.038 64.6563 9.3993 64.6563 8.68446L64.6651 0.203013H67.1348L67.1436 8.68446C67.1494 9.11219 67.1905 9.48719 67.2666 9.80946C67.3487 10.1317 67.4688 10.3983 67.627 10.6093C67.7735 10.8026 67.9522 10.9491 68.1631 11.0487C68.374 11.1425 68.6172 11.1893 68.8926 11.1893C69.1914 11.1893 69.4551 11.1395 69.6836 11.0399C69.918 10.9345 70.1114 10.7792 70.2637 10.5741C70.4278 10.3632 70.5508 10.0995 70.6328 9.78309C70.7149 9.46668 70.7588 9.10047 70.7647 8.68446L70.7735 0.203013H73.2256ZM75.0792 12.9999V0.203013H79.377C80.0743 0.203013 80.7071 0.273325 81.2755 0.41395C81.8497 0.554575 82.339 0.768442 82.7433 1.05555C83.1475 1.34266 83.4581 1.70594 83.6749 2.1454C83.8975 2.58485 84.0089 3.1034 84.0089 3.70106C84.003 4.08778 83.9327 4.45399 83.7979 4.79969C83.669 5.13954 83.4757 5.43836 83.2179 5.69618C83.0772 5.8368 82.9161 5.96571 82.7345 6.0829C82.5587 6.20008 82.3624 6.29969 82.1456 6.38172V6.39051C82.5675 6.5077 82.9015 6.65711 83.1475 6.83875C83.3995 7.0204 83.6104 7.23133 83.7804 7.47157C83.9561 7.72938 84.085 8.01063 84.1671 8.31532C84.255 8.61415 84.2989 8.92469 84.2989 9.24696C84.2989 9.86219 84.1934 10.4042 83.9825 10.8729C83.7716 11.3417 83.4698 11.7343 83.0772 12.0507C82.6847 12.3671 82.2071 12.6044 81.6446 12.7626C81.0821 12.9208 80.4493 12.9999 79.7462 12.9999H75.0792ZM77.5577 7.35731V11.0048H79.755C80.0772 11.0048 80.3643 10.9638 80.6163 10.8817C80.8741 10.7997 81.088 10.6884 81.2579 10.5477C81.4454 10.3895 81.586 10.1991 81.6798 9.97645C81.7794 9.75379 81.8292 9.50477 81.8292 9.22938C81.8292 8.94227 81.7911 8.68446 81.7149 8.45594C81.6446 8.22743 81.5304 8.03407 81.3722 7.87586C81.214 7.7118 81.0089 7.58583 80.7569 7.49793C80.505 7.41004 80.2061 7.36317 79.8604 7.35731H77.5577ZM77.5577 5.57313H79.3946C79.7696 5.56727 80.1007 5.52333 80.3878 5.44129C80.6749 5.3534 80.9063 5.2245 81.0821 5.05458C81.2286 4.91981 81.3399 4.75575 81.4161 4.56239C81.4981 4.36903 81.5391 4.1493 81.5391 3.90321C81.5391 3.6454 81.504 3.41981 81.4337 3.22645C81.3692 3.03309 81.2696 2.87196 81.1349 2.74305C80.9591 2.56141 80.7218 2.42958 80.4229 2.34754C80.13 2.26551 79.7843 2.22157 79.3858 2.21571H77.5577V5.57313ZM46.413 5.44227C46.1142 5.75282 45.9647 6.13368 45.9647 6.58485C45.9647 7.03602 46.1171 7.41395 46.4218 7.71864C46.7265 8.02333 47.1395 8.17567 47.661 8.17567C48.1767 8.17567 48.5868 8.02625 48.8915 7.72743C49.202 7.42274 49.3573 7.04188 49.3573 6.58485C49.3573 6.12782 49.205 5.74403 48.9003 5.43348C48.6015 5.12293 48.1884 4.96766 47.661 4.96766C47.1278 4.96766 46.7118 5.12586 46.413 5.44227Z" fill="white"/>
</svg>
